<?xml version="1.0" standalone="no"?><!DOCTYPE svg PUBLIC "-//W3C//DTD SVG 1.1//EN" "http://www.w3.org/Graphics/SVG/1.1/DTD/svg11.dtd"><svg t="1667625979241" class="icon" viewBox="0 0 1024 1024" version="1.1" xmlns="http://www.w3.org/2000/svg" p-id="826" xmlns:xlink="http://www.w3.org/1999/xlink" width="200" height="200"><path d="M512.45568 57.344c251.35104 0 455.11168 203.76064 455.11168 455.11168 0 251.35104-203.76064 455.11168-455.11168 455.11168C261.10464 967.56736 57.344 763.80672 57.344 512.45568 57.344 261.10464 261.10464 57.344 512.45568 57.344z m139.179008 266.324992c-15.835136 0-28.672 10.564608-28.672 23.59808v330.377216c0 13.033472 12.836864 23.59808 28.672 23.59808s28.672-10.564608 28.672-23.59808V347.267072c0-13.033472-12.836864-23.59808-28.672-23.59808z m-139.264 0c-15.835136 0-28.672 10.564608-28.672 23.59808v330.377216c0 13.033472 12.836864 23.59808 28.672 23.59808s28.672-10.564608 28.672-23.59808V347.267072c0-13.033472-12.836864-23.59808-28.672-23.59808z m-139.264 0c-15.835136 0-28.672 10.564608-28.672 23.59808v330.377216c0 13.033472 12.836864 23.59808 28.672 23.59808s28.672-10.564608 28.672-23.59808V347.267072c0-13.033472-12.836864-23.59808-28.672-23.59808z" p-id="827"></path></svg>