<?xml version="1.0" standalone="no"?><!DOCTYPE svg PUBLIC "-//W3C//DTD SVG 1.1//EN" "http://www.w3.org/Graphics/SVG/1.1/DTD/svg11.dtd"><svg t="1673083784844" class="icon" viewBox="0 0 1024 1024" version="1.1" xmlns="http://www.w3.org/2000/svg" p-id="5781" xmlns:xlink="http://www.w3.org/1999/xlink" width="200" height="200"><path d="M178.45 373.19h-41.76c-17.6 0-32 14.4-32 32v200.4c0 17.6 14.4 32 32 32h41.76c17.6 0 32-14.4 32-32v-200.4c0-17.6-14.4-32-32-32zM477.181 246.823L263.683 376.871c-11.92 7.261-20.761 28.977-20.761 48.937v172.384c0 19.96 8.84 41.676 20.761 48.937l213.498 130.048c54.596 33.256 110.615 23.038 110.615-31.156V277.979c0-54.195-56.019-64.413-110.615-31.156zM893.418 363.72c-17.182-41.479-41.979-78.597-73.705-110.323-12.496-12.497-32.758-12.497-45.254 0-12.497 12.497-12.497 32.758 0 45.255 51.382 51.382 80.852 122.528 80.852 195.195 0 72.666-29.47 143.813-80.852 195.194-12.497 12.497-12.497 32.759 0 45.256 6.248 6.248 14.438 9.372 22.627 9.372s16.379-3.124 22.627-9.372c31.727-31.727 56.523-68.844 73.705-110.323 17.181-41.479 25.893-85.26 25.893-130.127s-8.713-88.648-25.893-130.127z" fill="" p-id="5782"></path><path d="M756.523 414.324c-10.48-25.302-25.607-47.944-44.961-67.296-12.496-12.497-32.757-12.496-45.255 0-12.496 12.497-12.496 32.758 0.001 45.255 26.697 26.697 42.009 63.663 42.009 101.419s-15.312 74.722-42.009 101.418c-12.497 12.497-12.497 32.758-0.001 45.255 6.249 6.249 14.438 9.373 22.628 9.373 8.188 0 16.379-3.125 22.627-9.372 19.354-19.353 34.48-41.994 44.961-67.296s15.794-52.009 15.794-79.378c0-27.37-5.314-54.076-15.794-79.378z" fill="" p-id="5783"></path></svg>