<?xml version="1.0" standalone="no"?><!DOCTYPE svg PUBLIC "-//W3C//DTD SVG 1.1//EN" "http://www.w3.org/Graphics/SVG/1.1/DTD/svg11.dtd"><svg t="1673083789896" class="icon" viewBox="0 0 1024 1024" version="1.1" xmlns="http://www.w3.org/2000/svg" p-id="5936" xmlns:xlink="http://www.w3.org/1999/xlink" width="200" height="200"><path d="M137.907 373.19h-41.76c-17.6 0-32 14.4-32 32v200.4c0 17.6 14.4 32 32 32h41.76c17.6 0 32-14.4 32-32v-200.4c0-17.6-14.4-32-32-32zM436.638 246.823L223.14 376.871c-11.92 7.261-20.761 28.977-20.761 48.937v172.384c0 19.96 8.84 41.676 20.761 48.937l213.498 130.048c54.596 33.256 110.615 23.038 110.615-31.156V277.979c0-54.195-56.019-64.413-110.615-31.156zM826.56 490.605l123.435-118.311c12.759-12.229 13.188-32.485 0.959-45.244-12.228-12.76-32.486-13.187-45.244-0.959L782.275 444.402l-118.411-123.54c-12.229-12.759-32.486-13.188-45.244-0.959-12.759 12.229-13.188 32.486-0.959 45.245l118.411 123.539-128.459 123.127c-12.759 12.229-13.188 32.485-0.959 45.244 6.284 6.558 14.688 9.857 23.105 9.857 7.962 0 15.938-2.954 22.139-8.898l128.459-123.126 123.026 128.355c6.284 6.558 14.688 9.857 23.105 9.857 7.962 0 15.938-2.954 22.139-8.898 12.759-12.229 13.188-32.485 0.959-45.244L826.56 490.605z" fill="" p-id="5937"></path></svg>